<?xml version="1.0" encoding="UTF-8" standalone="no"?>
<!DOCTYPE svg PUBLIC "-//W3C//DTD SVG 1.1//EN"
 "http://www.w3.org/Graphics/SVG/1.1/DTD/svg11.dtd">
<!-- Generated by graphviz version 2.40.1 (20161225.0304)
 -->
<!-- Title: dependencies Pages: 1 -->
<svg width="504pt" height="349pt"
 viewBox="0.00 0.00 504.00 349.00" xmlns="http://www.w3.org/2000/svg" xmlns:xlink="http://www.w3.org/1999/xlink">
<g id="graph0" class="graph" transform="scale(1 1) rotate(0) translate(4 345)">
<title>dependencies</title>
<polygon fill="#ffffff" stroke="transparent" points="-4,4 -4,-345 500,-345 500,4 -4,4"/>
<text text-anchor="start" x="227.0091" y="-42.4" font-family="sans-serif" font-weight="bold" font-size="14.00" fill="#000000">Legend</text>
<polygon fill="#ffffb3" stroke="transparent" points="14,-10 14,-30 34,-30 34,-10 14,-10"/>
<text text-anchor="start" x="37.629" y="-15.4" font-family="sans-serif" font-size="14.00" fill="#000000"> &#160;Declarations</text>
<polygon fill="#8dd3c7" stroke="transparent" points="127,-10 127,-30 147,-30 147,-10 127,-10"/>
<text text-anchor="start" x="150.7251" y="-15.4" font-family="sans-serif" font-size="14.00" fill="#000000"> &#160;Module</text>
<polygon fill="#80b1d3" stroke="transparent" points="213,-10 213,-30 233,-30 233,-10 213,-10"/>
<text text-anchor="start" x="236.7812" y="-15.4" font-family="sans-serif" font-size="14.00" fill="#000000"> &#160;Bootstrap</text>
<polygon fill="#fdb462" stroke="transparent" points="310,-10 310,-30 330,-30 330,-10 310,-10"/>
<text text-anchor="start" x="333.6732" y="-15.4" font-family="sans-serif" font-size="14.00" fill="#000000"> &#160;Providers</text>
<polygon fill="#fb8072" stroke="transparent" points="406,-10 406,-30 426,-30 426,-10 406,-10"/>
<text text-anchor="start" x="429.7258" y="-15.4" font-family="sans-serif" font-size="14.00" fill="#000000"> &#160;Exports</text>
<g id="clust1" class="cluster">
<title>cluster_AppModule</title>
<polygon fill="none" stroke="#000000" stroke-dasharray="1,5" points="24,-70 24,-333 472,-333 472,-70 24,-70"/>
</g>
<g id="clust2" class="cluster">
<title>cluster_AppModule_declarations</title>
<polygon fill="none" stroke="#000000" points="190,-143 190,-195 464,-195 464,-143 190,-143"/>
</g>
<g id="clust3" class="cluster">
<title>cluster_AppModule_AppComponent_providers</title>
<polygon fill="none" stroke="#000000" points="338,-78 338,-130 464,-130 464,-78 338,-78"/>
</g>
<g id="clust5" class="cluster">
<title>cluster_AppModule_imports</title>
<polygon fill="none" stroke="#000000" points="32,-143 32,-195 182,-195 182,-143 32,-143"/>
</g>
<g id="clust7" class="cluster">
<title>cluster_AppModule_bootstrap</title>
<polygon fill="none" stroke="#000000" points="203,-273 203,-325 327,-325 327,-273 203,-273"/>
</g>
<!-- AppComponent -->
<g id="node1" class="node">
<title>AppComponent</title>
<polygon fill="#ffffb3" stroke="#000000" points="455.9399,-187 350.0601,-187 350.0601,-151 455.9399,-151 455.9399,-187"/>
<text text-anchor="middle" x="403" y="-164.8" font-family="Times,serif" font-size="14.00" fill="#000000">AppComponent</text>
</g>
<!-- AppModule -->
<g id="node3" class="node">
<title>AppModule</title>
<polygon fill="#8dd3c7" stroke="#000000" points="306.6571,-252 303.6571,-256 282.6571,-256 279.6571,-252 223.3429,-252 223.3429,-216 306.6571,-216 306.6571,-252"/>
<text text-anchor="middle" x="265" y="-229.8" font-family="Times,serif" font-size="14.00" fill="#000000">AppModule</text>
</g>
<!-- AppComponent&#45;&gt;AppModule -->
<g id="edge1" class="edge">
<title>AppComponent&#45;&gt;AppModule</title>
<path fill="none" stroke="#000000" d="M403,-187.1061C403,-206.3391 403,-234 403,-234 403,-234 316.779,-234 316.779,-234"/>
<polygon fill="#000000" stroke="#000000" points="316.7791,-230.5001 306.779,-234 316.779,-237.5001 316.7791,-230.5001"/>
</g>
<!-- TestInnerComponent -->
<g id="node2" class="node">
<title>TestInnerComponent</title>
<polygon fill="#ffffb3" stroke="#000000" points="332.4706,-187 197.5294,-187 197.5294,-151 332.4706,-151 332.4706,-187"/>
<text text-anchor="middle" x="265" y="-164.8" font-family="Times,serif" font-size="14.00" fill="#000000">TestInnerComponent</text>
</g>
<!-- TestInnerComponent&#45;&gt;AppModule -->
<g id="edge3" class="edge">
<title>TestInnerComponent&#45;&gt;AppModule</title>
<path fill="none" stroke="#000000" d="M265,-187.1061C265,-187.1061 265,-205.991 265,-205.991"/>
<polygon fill="#000000" stroke="#000000" points="261.5001,-205.9909 265,-215.991 268.5001,-205.991 261.5001,-205.9909"/>
</g>
<!-- AppComponent  -->
<g id="node6" class="node">
<title>AppComponent </title>
<polygon fill="#80b1d3" stroke="#000000" points="319.439,-317 210.561,-317 210.561,-281 319.439,-281 319.439,-317"/>
<text text-anchor="middle" x="265" y="-294.8" font-family="Times,serif" font-size="14.00" fill="#000000">AppComponent </text>
</g>
<!-- AppModule&#45;&gt;AppComponent  -->
<g id="edge5" class="edge">
<title>AppModule&#45;&gt;AppComponent </title>
<path fill="none" stroke="#000000" stroke-dasharray="1,5" d="M265,-252.1061C265,-252.1061 265,-270.991 265,-270.991"/>
<polygon fill="#000000" stroke="#000000" points="261.5001,-270.9909 265,-280.991 268.5001,-270.991 261.5001,-270.9909"/>
</g>
<!-- ListService -->
<g id="node4" class="node">
<title>ListService</title>
<ellipse fill="#fdb462" stroke="#000000" cx="401" cy="-104" rx="55.0285" ry="18"/>
<text text-anchor="middle" x="401" y="-99.8" font-family="Times,serif" font-size="14.00" fill="#000000">ListService</text>
</g>
<!-- ListService&#45;&gt;AppComponent -->
<g id="edge2" class="edge">
<title>ListService&#45;&gt;AppComponent</title>
<path fill="none" stroke="#000000" d="M403,-122.1061C403,-122.1061 403,-140.991 403,-140.991"/>
<polygon fill="#000000" stroke="#000000" points="399.5001,-140.9909 403,-150.991 406.5001,-140.991 399.5001,-140.9909"/>
</g>
<!-- InfiniteScrollModule -->
<g id="node5" class="node">
<title>InfiniteScrollModule</title>
<polygon fill="#8dd3c7" stroke="#000000" points="174.1965,-187 171.1965,-191 150.1965,-191 147.1965,-187 39.8035,-187 39.8035,-151 174.1965,-151 174.1965,-187"/>
<text text-anchor="middle" x="107" y="-164.8" font-family="Times,serif" font-size="14.00" fill="#000000">InfiniteScrollModule</text>
</g>
<!-- InfiniteScrollModule&#45;&gt;AppModule -->
<g id="edge4" class="edge">
<title>InfiniteScrollModule&#45;&gt;AppModule</title>
<path fill="none" stroke="#000000" d="M107,-187.1061C107,-206.3391 107,-234 107,-234 107,-234 213.0737,-234 213.0737,-234"/>
<polygon fill="#000000" stroke="#000000" points="213.0738,-237.5001 223.0737,-234 213.0737,-230.5001 213.0738,-237.5001"/>
</g>
</g>
</svg>
